# xmcd
#
# Track frame offsets: 
#        150
#        15227
#        31067
#        47504
#        59775
#        72915
#        87896
#        105583
#        117857
#        131118
#        149033
#        163224
#        172420
#
# Disc length: 2515 seconds
#
# Revision: 0
# Processed by: cddbd v1.5.2PL0 Copyright (c) Steve Scherf et al.
# Submitted via: ExactAudioCopy v0.99pb5
#
DISCID=bb09d10d
DTITLE=Ivan Rosenberg - Back to the Pasture
DYEAR=1900
DGENRE=Bluegrass
TTITLE0=Pepperwood Hollow
TTITLE1=Back to the Pasture
TTITLE2=Last Light
TTITLE3=I've Gotta Get a Message to You
TTITLE4=Devil's Chute
TTITLE5=Out Among the Corn
TTITLE6=Somebody Loves You Darling
TTITLE7=Split the Switch
TTITLE8=Soda Springs
TTITLE9=Late Night Ramble
TTITLE10=The Lost Coast
TTITLE11=Lolo Trace
TTITLE12=Dead Horse Blues
EXTD=
EXTT0=
EXTT1=
EXTT2=
EXTT3=
EXTT4=
EXTT5=
EXTT6=
EXTT7=
EXTT8=
EXTT9=
EXTT10=
EXTT11=
EXTT12=
PLAYORDER=
